<svg width="35" height="41" viewBox="0 0 35 41" fill="none" xmlns="http://www.w3.org/2000/svg">
<g clip-path="url(#clip0_2317_1008)">
<path d="M3.32828 27.8991V27.3991H2.82828C2.21078 27.3991 1.61858 27.1538 1.18194 26.7171C0.745301 26.2805 0.5 25.6883 0.5 25.0708V16.5859C0.5 15.5934 0.89429 14.6415 1.59613 13.9396C2.29797 13.2378 3.24987 12.8435 4.24242 12.8435H12.7273C13.7198 12.8435 14.6717 13.2378 15.3736 13.9396C16.0754 14.6415 16.4697 15.5934 16.4697 16.5859V25.0708C16.4697 25.6883 16.2244 26.2805 15.7878 26.7171C15.3511 27.1538 14.7589 27.3991 14.1414 27.3991H13.6414V27.8991V37.7981C13.6414 38.4156 13.3961 39.0078 12.9595 39.4444C12.5228 39.881 11.9306 40.1263 11.3131 40.1263H5.65657C5.03907 40.1263 4.44686 39.881 4.01022 39.4444C3.57358 39.0078 3.32828 38.4156 3.32828 37.7981V27.8991ZM2.82828 25.5708H5.15657V37.7981V38.2981H5.65657H11.3131H11.8131V37.7981V25.5708H14.1414H14.6414V25.0708V16.6011C14.6557 16.347 14.6169 16.0927 14.5273 15.8543C14.4355 15.6104 14.2928 15.3889 14.1085 15.2047C13.9243 15.0204 13.7028 14.8777 13.4589 14.7859C13.2205 14.6963 12.9662 14.6575 12.7121 14.6718H4.25763C4.00353 14.6575 3.74917 14.6963 3.51083 14.7859C3.26692 14.8777 3.04543 15.0204 2.86117 15.2047C2.67691 15.3889 2.53415 15.6104 2.44243 15.8543C2.35281 16.0927 2.31396 16.347 2.32828 16.6011V25.0708V25.5708H2.82828Z" fill="#FEF9C3"/>
<path d="M15.3736 13.9396C14.6717 13.2378 13.7198 12.8435 12.7273 12.8435H4.24242C3.24987 12.8435 2.29797 13.2378 1.59613 13.9396C0.89429 14.6415 0.5 15.5934 0.5 16.5859V25.0708C0.5 25.6883 0.745301 26.2805 1.18194 26.7171C1.61858 27.1538 2.21078 27.3991 2.82828 27.3991H3.32828V27.8991V37.7981C3.32828 38.4156 3.57358 39.0078 4.01022 39.4444C4.44686 39.881 5.03907 40.1263 5.65657 40.1263H11.3131C11.9306 40.1263 12.5228 39.881 12.9595 39.4444C13.3961 39.0078 13.6414 38.4156 13.6414 37.7981V27.8991V27.3991H14.1414C14.7589 27.3991 15.3511 27.1538 15.7878 26.7171C16.2244 26.2805 16.4697 25.6883 16.4697 25.0708V16.5859C16.4697 15.5934 16.0754 14.6415 15.3736 13.9396ZM15.3736 13.9396L15.7271 13.5861M2.82828 25.5708H5.15657V37.7981V38.2981H5.65657H11.3131H11.8131V37.7981V25.5708H14.1414H14.6414V25.0708V16.6011C14.6557 16.347 14.6169 16.0927 14.5273 15.8543C14.4355 15.6104 14.2928 15.3889 14.1085 15.2047C13.9243 15.0204 13.7028 14.8777 13.4589 14.7859C13.2205 14.6963 12.9662 14.6575 12.7121 14.6718H4.25763C4.00353 14.6575 3.74917 14.6963 3.51083 14.7859C3.26692 14.8777 3.04543 15.0204 2.86117 15.2047C2.67691 15.3889 2.53415 15.6104 2.44243 15.8543C2.35281 16.0927 2.31396 16.347 2.32828 16.6011V25.0708V25.5708H2.82828Z" stroke="#FEF9C3"/>
<path d="M8.48492 10.7828C7.53497 10.7828 6.60635 10.5011 5.8165 9.97336C5.02664 9.4456 4.41102 8.69547 4.04749 7.81783C3.68397 6.94019 3.58885 5.97446 3.77417 5.04277C3.9595 4.11107 4.41695 3.25525 5.08866 2.58353C5.76038 1.91182 6.61619 1.45437 7.54789 1.26905C8.47959 1.08372 9.44532 1.17884 10.323 1.54237C11.2006 1.9059 11.9508 2.52152 12.4785 3.31137C13.0063 4.10122 13.288 5.02984 13.288 5.97979C13.288 7.25363 12.782 8.4753 11.8812 9.37604C10.9805 10.2768 9.75876 10.7828 8.48492 10.7828ZM8.48492 2.82827C7.86161 2.82827 7.25229 3.01311 6.73403 3.3594C6.21576 3.70569 5.81183 4.19789 5.5733 4.77376C5.33477 5.34962 5.27235 5.98329 5.39396 6.59462C5.51556 7.20595 5.81571 7.7675 6.25646 8.20825C6.69721 8.64899 7.25875 8.94915 7.87009 9.07075C8.48142 9.19235 9.11509 9.12994 9.69095 8.89141C10.2669 8.65288 10.7591 8.24894 11.1053 7.73068C11.4516 7.21241 11.6365 6.6031 11.6365 5.97979C11.6365 5.14396 11.3044 4.34236 10.7134 3.75133C10.1224 3.16031 9.32075 2.82827 8.48492 2.82827Z" fill="#FEF9C3"/>
<path d="M5.8165 9.97336C6.60635 10.5011 7.53497 10.7828 8.48492 10.7828C9.75876 10.7828 10.9805 10.2768 11.8812 9.37604C12.782 8.4753 13.288 7.25363 13.288 5.97979C13.288 5.02984 13.0063 4.10122 12.4785 3.31137C11.9508 2.52152 11.2006 1.9059 10.323 1.54237C9.44532 1.17884 8.47959 1.08372 7.54789 1.26905C6.61619 1.45437 5.76038 1.91182 5.08866 2.58353C4.41695 3.25525 3.9595 4.11107 3.77417 5.04277C3.58885 5.97446 3.68397 6.94019 4.04749 7.81783C4.41102 8.69547 5.02664 9.4456 5.8165 9.97336ZM5.8165 9.97336L5.53871 10.3891M8.48492 2.82827C7.86161 2.82827 7.25229 3.01311 6.73403 3.3594C6.21576 3.70569 5.81183 4.19789 5.5733 4.77376C5.33477 5.34962 5.27235 5.98329 5.39396 6.59462C5.51556 7.20595 5.81571 7.7675 6.25646 8.20825C6.69721 8.64899 7.25875 8.94915 7.87009 9.07075C8.48142 9.19235 9.11509 9.12994 9.69095 8.89141C10.2669 8.65288 10.7591 8.24894 11.1053 7.73068C11.4516 7.21241 11.6365 6.6031 11.6365 5.97979C11.6365 5.14396 11.3044 4.34236 10.7134 3.75133C10.1224 3.16031 9.32075 2.82827 8.48492 2.82827Z" stroke="#FEF9C3"/>
<path d="M30.9492 15.5963C31.7016 16.4718 31.9959 17.4236 32.0749 17.9268H19.8943C19.9728 17.4248 20.2672 16.4727 21.0199 15.597C21.8507 14.6265 23.3239 13.654 25.9848 13.654C28.6475 13.654 30.1202 14.6247 30.9492 15.5963ZM32.3485 19.7677C32.3485 20.0177 32.3486 20.0177 32.3487 20.0177H32.3516L32.3571 20.0176L32.3747 20.0171C32.3893 20.0167 32.4095 20.0157 32.4346 20.0139C32.4848 20.0103 32.5548 20.0033 32.6381 19.9894C32.8037 19.9618 33.0282 19.9062 33.2557 19.7924C33.4842 19.6782 33.7204 19.5028 33.8988 19.2352C34.0783 18.966 34.1894 18.6182 34.1894 18.1768C34.1894 17.3215 33.7702 15.6729 32.5383 14.2357C31.2961 12.7865 29.2373 11.5631 25.9848 11.5631C22.7323 11.5631 20.6735 12.7865 19.4314 14.2357C18.1994 15.6729 17.7803 17.3215 17.7803 18.1768C17.7803 18.6182 17.8914 18.966 18.0708 19.2352C18.2493 19.5028 18.4854 19.6782 18.7139 19.7924C18.9415 19.9062 19.166 19.9618 19.3315 19.9894C19.4149 20.0033 19.4849 20.0103 19.535 20.0139C19.5601 20.0157 19.5804 20.0167 19.595 20.0171L19.6126 20.0176L19.618 20.0177H19.6199C19.6201 20.0177 19.6212 20.0177 19.6212 19.7677V20.0177H32.3487L32.3485 19.7677ZM28.0579 7.52259C27.5081 8.07242 26.7624 8.3813 25.9848 8.3813C25.2073 8.3813 24.4615 8.07242 23.9117 7.52259C23.3619 6.97277 23.053 6.22705 23.053 5.44949C23.053 4.67192 23.3619 3.9262 23.9117 3.37638C24.4615 2.82655 25.2073 2.51767 25.9848 2.51767C26.7624 2.51767 27.5081 2.82655 28.0579 3.37638C28.6077 3.9262 28.9166 4.67192 28.9166 5.44949C28.9166 6.22705 28.6077 6.97277 28.0579 7.52259ZM30.6252 7.3716C30.8776 6.76221 31.0075 6.10908 31.0075 5.44949C31.0075 4.11738 30.4784 2.83982 29.5364 1.89788C28.5945 0.955937 27.3169 0.426758 25.9848 0.426758C24.6527 0.426758 23.3752 0.955937 22.4332 1.89788C21.4913 2.83982 20.9621 4.11738 20.9621 5.44949C20.9621 6.10908 21.092 6.76221 21.3444 7.3716C21.5968 7.98099 21.9668 8.53469 22.4332 9.00109C22.8996 9.46749 23.4533 9.83746 24.0627 10.0899C24.6721 10.3423 25.3252 10.4722 25.9848 10.4722C26.6444 10.4722 27.2975 10.3423 27.9069 10.0899C28.5163 9.83746 29.07 9.46749 29.5364 9.00109C30.0028 8.53469 30.3728 7.98099 30.6252 7.3716Z" fill="#FEF9C3"/>
<path d="M32.3487 20.0177C32.3486 20.0177 32.3485 20.0177 32.3485 19.7677L32.3487 20.0177ZM32.3487 20.0177H32.3516L32.3571 20.0176L32.3747 20.0171C32.3893 20.0167 32.4095 20.0157 32.4346 20.0139C32.4848 20.0103 32.5548 20.0033 32.6381 19.9894C32.8037 19.9618 33.0282 19.9062 33.2557 19.7924C33.4842 19.6782 33.7204 19.5028 33.8988 19.2352C34.0783 18.966 34.1894 18.6182 34.1894 18.1768C34.1894 17.3215 33.7702 15.6729 32.5383 14.2357C31.2961 12.7865 29.2373 11.5631 25.9848 11.5631C22.7323 11.5631 20.6735 12.7865 19.4314 14.2357C18.1994 15.6729 17.7803 17.3215 17.7803 18.1768C17.7803 18.6182 17.8914 18.966 18.0708 19.2352C18.2493 19.5028 18.4854 19.6782 18.7139 19.7924C18.9415 19.9062 19.166 19.9618 19.3315 19.9894C19.4149 20.0033 19.4849 20.0103 19.535 20.0139C19.5601 20.0157 19.5804 20.0167 19.595 20.0171L19.6126 20.0176L19.618 20.0177H19.6199C19.6201 20.0177 19.6212 20.0177 19.6212 19.7677V20.0177H32.3487ZM30.9492 15.5963C31.7016 16.4718 31.9959 17.4236 32.0749 17.9268H19.8943C19.9728 17.4248 20.2672 16.4727 21.0199 15.597C21.8507 14.6265 23.3239 13.654 25.9848 13.654C28.6475 13.654 30.1202 14.6247 30.9492 15.5963ZM28.0579 7.52259C27.5081 8.07242 26.7624 8.3813 25.9848 8.3813C25.2073 8.3813 24.4615 8.07242 23.9117 7.52259C23.3619 6.97277 23.053 6.22705 23.053 5.44949C23.053 4.67192 23.3619 3.9262 23.9117 3.37638C24.4615 2.82655 25.2073 2.51767 25.9848 2.51767C26.7624 2.51767 27.5081 2.82655 28.0579 3.37638C28.6077 3.9262 28.9166 4.67192 28.9166 5.44949C28.9166 6.22705 28.6077 6.97277 28.0579 7.52259ZM30.6252 7.3716C30.8776 6.76221 31.0075 6.10908 31.0075 5.44949C31.0075 4.11738 30.4784 2.83982 29.5364 1.89788C28.5945 0.955937 27.3169 0.426758 25.9848 0.426758C24.6527 0.426758 23.3752 0.955937 22.4332 1.89788C21.4913 2.83982 20.9621 4.11738 20.9621 5.44949C20.9621 6.10908 21.092 6.76221 21.3444 7.3716C21.5968 7.98099 21.9668 8.53469 22.4332 9.00109C22.8996 9.46749 23.4533 9.83746 24.0627 10.0899C24.6721 10.3423 25.3252 10.4722 25.9848 10.4722C26.6444 10.4722 27.2975 10.3423 27.9069 10.0899C28.5163 9.83746 29.07 9.46749 29.5364 9.00109C30.0028 8.53469 30.3728 7.98099 30.6252 7.3716Z" stroke="#FEF9C3" stroke-width="0.5"/>
<path d="M35.0001 19.1465H15.9092" stroke="#FEF9C3" stroke-width="3"/>
</g>
<defs>
<clipPath id="clip0_2317_1008">
<rect width="35" height="41" fill="white"/>
</clipPath>
</defs>
</svg>
