<svg width="52" height="54" viewBox="0 0 52 54" fill="none" xmlns="http://www.w3.org/2000/svg">
<path d="M43.5536 24.2656H8.44729C5.45674 24.2656 3.02441 26.6983 3.02441 29.6889V34.7116V36.3202L4.61589 36.548C5.53568 36.6799 6.22993 37.4802 6.22993 38.409C6.22993 39.3379 5.53609 40.1381 4.6167 40.2699L3.02441 40.4977V42.1065V47.13C3.02441 50.1198 5.45674 52.5525 8.44729 52.5525H43.5536C46.5442 52.5525 48.9769 50.1198 48.9769 47.13V42.1401V40.3692L47.2077 40.2865C46.2026 40.2398 45.4146 39.415 45.4146 38.4091C45.4146 37.404 46.2026 36.5792 47.2084 36.5317L48.9769 36.4481V34.678V29.6889C48.9769 26.6983 46.5442 24.2656 43.5536 24.2656ZM47.1208 34.678C45.1386 34.7723 43.5593 36.4038 43.5593 38.4091C43.5593 40.4151 45.1386 42.0475 47.1208 42.1401V47.13C47.1208 49.1 45.5235 50.6972 43.5536 50.6972H8.44729C6.47692 50.6972 4.8797 49.1 4.8797 47.13V42.1065C6.69118 41.8468 8.08521 40.293 8.08521 38.409C8.08521 36.5258 6.69108 34.972 4.8797 34.7116V29.6889C4.8797 27.7181 6.47692 26.1209 8.44729 26.1209H43.5536C45.5235 26.1209 47.1208 27.7181 47.1208 29.6889V34.678Z" fill="#374151" stroke="#374151" stroke-width="1.5"/>
<path d="M14.9051 45.2444H13.6777V48.4463H14.9051V45.2444Z" fill="#374151" stroke="#374151" stroke-width="1.5"/>
<path d="M14.9051 39.6204H13.6777V42.8214H14.9051V39.6204Z" fill="#374151" stroke="#374151" stroke-width="1.5"/>
<path d="M14.9051 33.9956H13.6777V37.1975H14.9051V33.9956Z" fill="#374151" stroke="#374151" stroke-width="1.5"/>
<path d="M14.9051 28.3718H13.6777V31.5736H14.9051V28.3718Z" fill="#374151" stroke="#374151" stroke-width="1.5"/>
<path d="M11.4249 19.2002L10.3523 19.7965L11.909 22.5937L12.9813 21.9974L11.4249 19.2002Z" fill="#374151" stroke="#374151" stroke-width="1.5"/>
<path d="M50.3186 19.0257L47.8925 14.6648L47.0309 13.1183L45.4451 13.9062C44.5442 14.3535 43.4547 14.016 42.9665 13.1371C42.4766 12.259 42.765 11.1548 43.6201 10.6249L45.1256 9.69193L44.2639 8.14455L41.8386 3.78535C40.3846 1.17258 37.0763 0.22893 34.4625 1.68368L3.7855 18.7513C1.17213 20.2052 0.229383 23.5143 1.68332 26.1273L1.77143 26.2862C2.10068 25.6424 2.51954 25.0535 3.01231 24.5333C2.5287 22.9582 3.18972 21.2061 4.68736 20.3722L35.3652 3.30456C37.087 2.34621 39.2592 2.96544 40.2176 4.68721L42.643 9.04722C40.9563 10.0924 40.3699 12.2876 41.3446 14.0396C42.3193 15.7916 44.4932 16.4502 46.2708 15.5672L48.6968 19.9282C49.4292 21.2428 49.2342 22.8172 48.3373 23.9156C48.8182 24.3144 49.2424 24.7773 49.611 25.2818C51.1117 23.607 51.472 21.0989 50.3186 19.0257Z" fill="#374151" stroke="#374151" stroke-width="1.5"/>
</svg>
