<svg width="46" height="46" viewBox="0 0 46 46" fill="none" xmlns="http://www.w3.org/2000/svg">
<path d="M39.5855 45.8396L38.5376 45.8333C24.148 45.7458 0.00219169 44.8208 0.00219169 39.5833C0.00219169 37.3125 3.66052 36.6333 8.72511 35.6958C11.2105 35.2375 16.3855 34.275 16.6709 33.325C16.4293 32.5583 12.2605 31.4729 7.24802 31.2479L6.25219 31.2062V29.1667L8.33552 29.2208C12.6272 29.4875 18.7522 30.3875 18.7522 33.3333C18.7522 35.9562 14.2814 36.7833 9.10219 37.7437C6.64386 38.2 2.53344 38.9604 2.05636 39.7021C2.70011 41.7229 19.398 43.6333 38.5459 43.75H39.5855V45.8396ZM16.6689 8.61042C16.6689 13.3583 12.1147 19.7917 8.33552 27.0833C4.55636 19.7917 0.00219169 13.3604 0.00219169 8.60833C-0.0232427 7.494 0.172914 6.38571 0.579276 5.34779C0.985638 4.30988 1.59411 3.36302 2.36938 2.56217C3.14464 1.76132 4.07125 1.12244 5.09543 0.682604C6.11961 0.24277 7.22095 0.0107457 8.33552 0C9.4501 0.0107457 10.5514 0.24277 11.5756 0.682604C12.5998 1.12244 13.5264 1.76132 14.3017 2.56217C15.0769 3.36302 15.6854 4.30988 16.0918 5.34779C16.4981 6.38571 16.6943 7.49608 16.6689 8.61042ZM9.51261 20.5937C12.1209 15.9583 14.5855 11.5875 14.5855 8.60833C14.6125 7.76725 14.4713 6.92925 14.1701 6.14345C13.869 5.35765 13.4141 4.63986 12.832 4.03215C12.2499 3.42444 11.5524 2.93904 10.7803 2.6044C10.0081 2.26975 9.17699 2.09261 8.33552 2.08333C7.49406 2.09261 6.66291 2.26975 5.8908 2.6044C5.11868 2.93904 4.42113 3.42444 3.83904 4.03215C3.25694 4.63986 2.80201 5.35765 2.5009 6.14345C2.1998 6.92925 2.05858 7.76725 2.08552 8.60833C2.08552 11.5875 4.55011 15.9625 7.15844 20.5937C7.54594 21.2854 7.94177 21.9854 8.33552 22.6979C8.73136 21.9854 9.12511 21.2854 9.51261 20.5937ZM12.5022 8.33333C12.5022 9.15742 12.2578 9.963 11.8 10.6482C11.3421 11.3334 10.6914 11.8675 9.93004 12.1828C9.16868 12.4982 8.3309 12.5807 7.52265 12.4199C6.71439 12.2592 5.97196 11.8623 5.38925 11.2796C4.80653 10.6969 4.40969 9.95446 4.24892 9.14621C4.08815 8.33796 4.17066 7.50018 4.48603 6.73882C4.80139 5.97746 5.33544 5.32672 6.02065 4.86888C6.70585 4.41104 7.51144 4.16667 8.33552 4.16667C9.44059 4.16667 10.5004 4.60565 11.2818 5.38705C12.0632 6.16846 12.5022 7.22826 12.5022 8.33333ZM10.4189 8.33333C10.4189 7.92129 10.2967 7.5185 10.0678 7.1759C9.83883 6.83329 9.51346 6.56627 9.13278 6.40858C8.7521 6.2509 8.33321 6.20964 7.92909 6.29003C7.52496 6.37042 7.15375 6.56883 6.86239 6.86019C6.57103 7.15155 6.37261 7.52277 6.29222 7.92689C6.21184 8.33102 6.25309 8.74991 6.41078 9.13059C6.56846 9.51127 6.83548 9.83664 7.17809 10.0656C7.52069 10.2945 7.92348 10.4167 8.33552 10.4167C8.88806 10.4167 9.41796 10.1972 9.80866 9.80647C10.1994 9.41577 10.4189 8.88587 10.4189 8.33333ZM45.8355 23.1917C45.8355 27.9437 41.2814 34.375 37.5022 41.6667C33.723 34.375 29.1689 27.9437 29.1689 23.1917C29.1335 22.0751 29.323 20.9629 29.7259 19.921C30.1288 18.8791 30.7369 17.9288 31.5142 17.1265C32.2915 16.3243 33.2222 15.6864 34.2508 15.2507C35.2794 14.8151 36.3851 14.5906 37.5022 14.5906C38.6193 14.5906 39.725 14.8151 40.7536 15.2507C41.7822 15.6864 42.7128 16.3243 43.4901 17.1265C44.2675 17.9288 44.8756 18.8791 45.2785 19.921C45.6814 20.9629 45.8708 22.0751 45.8355 23.1917ZM38.6793 35.1771C41.2876 30.5417 43.7522 26.1708 43.7522 23.1917C43.79 22.3474 43.6563 21.5042 43.3592 20.713C43.0622 19.9218 42.6079 19.199 42.0238 18.5882C41.4397 17.9774 40.7379 17.4913 39.9608 17.1592C39.1837 16.8271 38.3473 16.6558 37.5022 16.6558C36.6571 16.6558 35.8207 16.8271 35.0436 17.1592C34.2665 17.4913 33.5647 17.9774 32.9806 18.5882C32.3965 19.199 31.9422 19.9218 31.6452 20.713C31.3481 21.5042 31.2144 22.3474 31.2522 23.1917C31.2522 26.1708 33.7168 30.5458 36.3251 35.1771C36.7126 35.8687 37.1084 36.5687 37.5022 37.2812C37.898 36.5687 38.2918 35.8687 38.6793 35.1771ZM41.6689 22.9167C41.6689 23.7408 41.4245 24.5463 40.9666 25.2315C40.5088 25.9167 39.8581 26.4508 39.0967 26.7662C38.3353 27.0815 37.4976 27.164 36.6893 27.0033C35.8811 26.8425 35.1386 26.4457 34.5559 25.8629C33.9732 25.2802 33.5764 24.5378 33.4156 23.7295C33.2548 22.9213 33.3373 22.0835 33.6527 21.3222C33.9681 20.5608 34.5021 19.91 35.1873 19.4522C35.8725 18.9944 36.6781 18.75 37.5022 18.75C38.6073 18.75 39.6671 19.189 40.4485 19.9704C41.2299 20.7518 41.6689 21.8116 41.6689 22.9167ZM39.5855 22.9167C39.5855 22.5046 39.4633 22.1018 39.2344 21.7592C39.0055 21.4166 38.6801 21.1496 38.2994 20.9919C37.9188 20.8342 37.4999 20.793 37.0958 20.8734C36.6916 20.9537 36.3204 21.1522 36.0291 21.4435C35.7377 21.7349 35.5393 22.1061 35.4589 22.5102C35.3785 22.9144 35.4198 23.3332 35.5774 23.7139C35.7351 24.0946 36.0022 24.42 36.3448 24.6489C36.6874 24.8778 37.0901 25 37.5022 25C38.0547 25 38.5846 24.7805 38.9753 24.3898C39.366 23.9991 39.5855 23.4692 39.5855 22.9167Z" fill="#374151"/>
</svg>
